<svg width="22" height="26" viewBox="0 0 22 26" fill="none" xmlns="http://www.w3.org/2000/svg">
<path d="M19.1667 7.16675C18.8572 7.16675 18.5605 7.28966 18.3417 7.50846C18.1229 7.72725 18 8.024 18 8.33341V21.3896C17.9665 21.9795 17.7013 22.5324 17.2621 22.9277C16.8229 23.323 16.2452 23.5287 15.655 23.5001H6.345C5.75478 23.5287 5.17715 23.323 4.73792 22.9277C4.2987 22.5324 4.03347 21.9795 4 21.3896V8.33341C4 8.024 3.87708 7.72725 3.65829 7.50846C3.4395 7.28966 3.14275 7.16675 2.83333 7.16675C2.52391 7.16675 2.22717 7.28966 2.00838 7.50846C1.78958 7.72725 1.66667 8.024 1.66667 8.33341V21.3896C1.69997 22.5985 2.21101 23.745 3.08788 24.5779C3.96474 25.4108 5.13595 25.8623 6.345 25.8334H15.655C16.864 25.8623 18.0353 25.4108 18.9121 24.5779C19.789 23.745 20.3 22.5985 20.3333 21.3896V8.33341C20.3333 8.024 20.2104 7.72725 19.9916 7.50846C19.7728 7.28966 19.4761 7.16675 19.1667 7.16675ZM20.3333 3.66675H15.6667V1.33341C15.6667 1.024 15.5437 0.727249 15.325 0.508457C15.1062 0.289664 14.8094 0.166748 14.5 0.166748H7.5C7.19058 0.166748 6.89383 0.289664 6.67504 0.508457C6.45625 0.727249 6.33333 1.024 6.33333 1.33341V3.66675H1.66667C1.35725 3.66675 1.0605 3.78966 0.841709 4.00846C0.622916 4.22725 0.5 4.524 0.5 4.83341C0.5 5.14283 0.622916 5.43958 0.841709 5.65837C1.0605 5.87716 1.35725 6.00008 1.66667 6.00008H20.3333C20.6428 6.00008 20.9395 5.87716 21.1583 5.65837C21.3771 5.43958 21.5 5.14283 21.5 4.83341C21.5 4.524 21.3771 4.22725 21.1583 4.00846C20.9395 3.78966 20.6428 3.66675 20.3333 3.66675ZM8.66667 3.66675V2.50008H13.3333V3.66675H8.66667Z" fill="#454545"/>
<path d="M9.83333 18.8333V10.6667C9.83333 10.3572 9.71042 10.0605 9.49162 9.84171C9.27283 9.62292 8.97609 9.5 8.66667 9.5C8.35725 9.5 8.0605 9.62292 7.84171 9.84171C7.62292 10.0605 7.5 10.3572 7.5 10.6667V18.8333C7.5 19.1428 7.62292 19.4395 7.84171 19.6583C8.0605 19.8771 8.35725 20 8.66667 20C8.97609 20 9.27283 19.8771 9.49162 19.6583C9.71042 19.4395 9.83333 19.1428 9.83333 18.8333ZM14.5 18.8333V10.6667C14.5 10.3572 14.3771 10.0605 14.1583 9.84171C13.9395 9.62292 13.6428 9.5 13.3333 9.5C13.0239 9.5 12.7272 9.62292 12.5084 9.84171C12.2896 10.0605 12.1667 10.3572 12.1667 10.6667V18.8333C12.1667 19.1428 12.2896 19.4395 12.5084 19.6583C12.7272 19.8771 13.0239 20 13.3333 20C13.6428 20 13.9395 19.8771 14.1583 19.6583C14.3771 19.4395 14.5 19.1428 14.5 18.8333Z" fill="#454545"/>
</svg>
